<?xml version="1.0" standalone="no"?>
<!DOCTYPE svg PUBLIC "-//W3C//DTD SVG 20010904//EN" "http://www.w3.org/TR/2001/REC-SVG-20010904/DTD/svg10.dtd">
<!-- Created using Krita: https://krita.org -->
<svg xmlns="http://www.w3.org/2000/svg" 
    xmlns:xlink="http://www.w3.org/1999/xlink"
    xmlns:krita="http://krita.org/namespaces/svg/krita"
    xmlns:sodipodi="http://sodipodi.sourceforge.net/DTD/sodipodi-0.dtd"
    width="144pt"
    height="144pt"
    viewBox="0 0 144 144">
<defs/>
<path id="shape0" transform="matrix(1.06992646291808 0 0 1.06992646291808 17.3934010078794 57.4501924612484)" fill="none" stroke="#262626" stroke-width="12" stroke-linecap="round" stroke-linejoin="round" d="M0 2.84217e-14C49.0442 1.42109e-14 84.0758 3.55271e-15 105.095 0" sodipodi:nodetypes="cc"/><path id="shape1" transform="matrix(1.06992646291808 0 0 1.06992646291808 98.9379198190564 39.6105764900668)" fill="none" stroke="#262626" stroke-width="12" stroke-linecap="round" stroke-linejoin="miter" stroke-miterlimit="1.92" d="M28.8797 16.6737L0 0" sodipodi:nodetypes="cc"/><path id="shape0" transform="matrix(1.06992647899226 0 0 -1.06992647899226 99.1585058808585 75.2856486332459)" fill="none" stroke="#262626" stroke-width="12" stroke-linecap="round" stroke-linejoin="miter" stroke-miterlimit="1.91999995708466" d="M28.8797 16.6737L0 0" sodipodi:nodetypes="cc"/><path id="shape01" transform="matrix(-1.06992641387163 0 0 1.06992641387163 130.002844297329 98.8731458561783)" fill="none" stroke="#262626" stroke-width="12" stroke-linecap="round" stroke-linejoin="round" d="M0 2.84217e-14C49.0442 1.42109e-14 84.0758 3.55271e-15 105.095 0" sodipodi:nodetypes="cc"/><path id="shape1" transform="matrix(-1.06992641387163 0 0 1.06992641387163 48.4583292242314 81.0335307027817)" fill="none" stroke="#262626" stroke-width="12" stroke-linecap="round" stroke-linejoin="miter" stroke-miterlimit="1.91999995708466" d="M28.8797 16.6737L0 0" sodipodi:nodetypes="cc"/><path id="shape02" transform="matrix(-1.06992642994581 0 0 -1.06992642994581 48.2377431725412 116.708601210581)" fill="none" stroke="#262626" stroke-width="12" stroke-linecap="round" stroke-linejoin="miter" stroke-miterlimit="1.91999995708466" d="M28.8797 16.6737L0 0" sodipodi:nodetypes="cc"/>
</svg>
